<?xml version="1.0" encoding="UTF-8"?>
<svg width="960px" height="390px" viewBox="0 0 960 390" version="1.1" xmlns="http://www.w3.org/2000/svg" xmlns:xlink="http://www.w3.org/1999/xlink">
    <!-- Generator: Sketch 47.1 (45422) - http://www.bohemiancoding.com/sketch -->
    <title>Group 10</title>
    <desc>Created with Sketch.</desc>
    <defs>
        <rect id="path-1" x="0" y="0" width="960" height="390"></rect>
    </defs>
    <g id="CLIENT" stroke="none" stroke-width="1" fill="none" fill-rule="evenodd">
        <g id="LANDING-PAGE" transform="translate(0.000000, -73.000000)">
            <g id="Group-10" transform="translate(0.000000, 73.000000)">
                <mask id="mask-2" fill="white">
                    <use xlink:href="#path-1"></use>
                </mask>
                <use id="Mask" fill="#000000" xlink:href="#path-1"></use>
                <g id="Group-9" opacity="0.164968297" mask="url(#mask-2)" fill="#FFFFFF">
                    <g transform="translate(623.543473, 339.663505) rotate(-34.000000) translate(-623.543473, -339.663505) translate(271.543473, -301.836495)">
                        <path d="M587.723694,524.855904 C552.786815,499.343269 519.308266,465.811896 524.401914,434.469365 C524.401914,434.469365 510.575097,480.39295 542.595316,503.716743 C542.595316,503.716743 505.477246,505.177374 477.096548,490.59632 C477.096548,490.59632 519.308266,513.191903 546.239039,518.297797 C573.16561,523.399482 608.829553,564.221382 598.638054,570.779489 C588.450757,577.341805 570.896163,561.321167 562.247048,540.897589 C562.247048,540.897589 560.065857,559.119697 570.980217,570.051278 C570.980217,570.051278 545.507773,586.816965 518.581202,565.677804 C518.581202,565.677804 533.866349,586.816965 561.519984,583.899912 C589.173618,580.987069 615.377328,585.596264 626.291688,609.896618 C626.291688,609.896618 622.65637,550.368539 587.723694,524.855904" id="Fill-38"></path>
                        <path d="M701.985454,88.53338 C701.985454,88.53338 704.048817,214.640354 585.430821,279.33809 C466.812825,344.031605 483.860938,443.847472 506.350748,480.375562 C506.350748,480.375562 473.404593,390.087477 557.972873,329.775814 C642.545382,269.468371 714.200731,200.384562 701.985454,88.53338" id="Fill-39"></path>
                        <path d="M474.433983,383.644647 C474.433983,344.219882 476.636717,324.511715 531.649978,246.855214 C586.671712,169.198712 583.634482,93.4519011 583.634482,93.4519011 C583.634482,93.4519011 565.292492,184.349761 511.842324,246.855214 C458.396391,309.356451 474.433983,383.644647 474.433983,383.644647" id="Fill-42"></path>
                        <path d="M513.165703,206.577887 C363.126067,339.399411 452.93229,462.340985 452.93229,462.340985 C401.456037,336.107503 513.165703,206.577887 513.165703,206.577887" id="Fill-43"></path>
                        <path d="M389.457444,444.029728 C407.747161,451.296274 437.748379,473.817534 437.748379,473.817534 L407.020473,428.77082 C407.020473,428.77082 397.505934,436.037366 372.629554,420.778458 C347.753174,405.523745 355.07075,355.392126 378.485305,369.195208 C401.899859,383.002485 372.629554,401.164656 372.629554,401.164656 C417.992613,396.075556 412.141086,368.469393 393.483801,358.299584 C374.822292,348.129775 349.214999,356.117942 349.214999,387.361574 C349.214999,418.601011 371.163503,436.767377 389.457444,444.029728" id="Fill-44"></path>
                        <path d="M310.667755,50.8247182 C310.667755,50.8247182 192.878667,74.2238952 181.9071,186.824518 C170.931309,299.420919 220.681472,348.414793 241.897956,365.22741 C263.11444,382.044249 260.917592,391.012104 266.042163,414.677276 C271.162509,438.346671 299.696188,466.863099 335.542836,474.90208 C371.389485,482.945283 423.332272,493.914439 413.091579,507.074893 C402.855111,520.235346 372.124584,500.492555 372.124584,500.492555 C372.124584,500.492555 394.802817,518.770259 418.947025,513.653008 C443.091232,508.535758 465.769465,523.157077 473.817534,531.20028 C473.817534,531.20028 452.60105,495.375304 390.413346,480.023552 C328.225642,464.667579 287.258647,425.181995 293.109868,395.935135 C298.965313,366.688275 311.398629,371.075093 280.676552,347.680138 C249.946025,324.280961 201.661836,305.272824 201.661836,217.532243 C201.661836,129.791663 259.455843,64.7198267 310.667755,50.8247182" id="Fill-45"></path>
                        <path d="M245.051686,416.475543 C241.378141,394.209804 227.422065,381.543995 195.102507,356.076869 C162.782949,330.605508 159.843265,224.612464 159.843265,224.612464 C159.843265,224.612464 155.431618,307.480138 167.186112,342.678468 C178.940607,377.876797 192.162823,394.010776 218.607255,429.21334 C245.051686,464.41167 308.227323,482.015069 308.227323,482.015069 C264.887131,465.148497 248.729473,438.745515 245.051686,416.475543" id="Fill-46"></path>
                        <path d="M146.192347,231.170492 C146.192347,231.170492 162.993097,67.4454562 268.879154,0 C268.879154,0 172.48569,58.1320217 153.496287,126.766427 C134.511102,195.396616 146.192347,231.170492 146.192347,231.170492" id="Fill-48"></path>
                        <path d="M186.903802,413.155773 C159.02005,374.183833 121.588868,334.558285 116.452833,236.521211 C111.316799,138.488354 164.151847,34.4296478 164.151847,34.4296478 C152.409313,47.573506 90.7684226,127.899895 88.5690811,223.794819 C86.3655019,319.685526 186.903802,413.155773 186.903802,413.155773" id="Fill-50"></path>
                        <path d="M101.649436,355.773027 C29.7403534,262.289165 91.4785687,67.2197885 91.4785687,67.2197885 C74.0475889,84.7839355 29.0189558,158.704651 39.1856293,229.6966 C49.3523027,300.684323 101.649436,355.773027 101.649436,355.773027" id="Fill-51"></path>
                        <path d="M216.414929,468.899013 C60.1884395,422.185396 6.64322383,224.612464 6.64322383,224.612464 C5.17350465,238.711269 -10.9595223,301.019976 43.3141997,376.93013 C97.5921572,452.840285 216.414929,468.899013 216.414929,468.899013" id="Fill-52"></path>
                        <path d="M408.072504,545.013735 C408.072504,545.013735 418.335877,550.144608 422.002578,558.941599 C422.002578,558.941599 433.002679,533.680942 381.677342,518.085122 C330.347771,502.489301 276.748741,499.55556 236.089013,460.701478 C236.089013,460.701478 246.763091,489.293815 303.220116,508.352551 C359.681374,527.41552 389.739002,531.081639 394.138195,542.812371 C398.537389,554.543103 382.409835,571.404708 370.677241,564.804848 C358.944646,558.204988 375.804694,545.013735 365.54132,542.812371 C355.277946,540.61524 327.413564,558.204988 347.212052,569.935721 C367.01054,581.666453 415.837779,575.362931 408.072504,545.013735" id="Fill-53"></path>
                        <path d="M149.339575,529.37305 C209.367937,526.457592 286.969392,515.99649 314.785351,523.049202 C314.785351,523.049202 242.112986,492.167255 182.18608,481.221648 C122.250719,470.276041 22.692412,426.50204 0,388.563168 C0,388.563168 10.221731,431.608305 70.2627756,457.143841 C130.30382,482.68359 164.714445,509.676856 164.714445,509.676856 C164.714445,509.676856 112.003624,527.186456 64.4205786,500.188978 C64.4205786,500.188978 89.3112123,532.292721 149.339575,529.37305" id="Fill-54"></path>
                        <path d="M344.296478,532.839787 C344.296478,532.839787 285.940237,541.470688 279.377582,564.998704 C272.810715,588.526719 317.308717,595.141055 317.308717,595.141055 C317.308717,595.141055 266.24806,562.434481 344.296478,532.839787" id="Fill-55"></path>
                        <path d="M208.975386,560.362457 C208.975386,560.362457 174.584615,611.971761 235.579966,616.372062 C235.579966,616.372062 192.319596,575.303998 276.934889,536.433967 C281.192633,534.477337 188.533998,540.834268 138.16193,578.234709 C87.7856475,615.639385 143.077307,652.307148 183.327746,650.841792 C183.327746,650.841792 123.559132,591.626193 208.975386,560.362457" id="Fill-56"></path>
                        <path d="M505.534398,638.340159 C505.534398,638.340159 532.876101,660.204489 517.979733,700.6965 C503.079139,741.192747 452.030024,736.782601 418.450863,727.83945 C384.871702,718.900535 367.22426,663.28439 376.005722,608.257111 C376.005722,608.257111 318.190909,756.456685 499.681499,768.928801 L464.555651,749.847819 C464.555651,749.847819 529.685532,749.11915 534.076263,700.6965 C538.466993,652.278087 505.534398,638.340159 505.534398,638.340159" id="Fill-57"></path>
                        <path d="M419.712553,625.270771 C419.824552,614.250084 412.363712,611.058881 412.363712,611.058881 C412.363712,611.058881 410.464041,616.92781 401.676446,621.964989 C401.676446,621.964989 411.618489,610.940059 406.022859,595.141055 C406.022859,595.141055 402.667204,599.915129 393.715919,606.161741 C393.715919,606.161741 405.277637,624.901576 383.644647,632.620724 C383.644647,632.620724 403.041969,632.985676 409.378514,621.595794 C409.378514,621.595794 419.075022,629.310699 411.618489,637.768238 C411.618489,637.768238 419.600554,636.295701 419.712553,625.270771" id="Fill-58"></path>
                        <path d="M447.841184,562.468958 C447.683792,562.390262 447.585421,562.350914 447.585421,562.350914 C447.678873,562.390262 447.747732,562.42961 447.841184,562.468958" id="Fill-59"></path>
                        <path d="M509.886689,578.368914 C509.886689,578.368914 500.31065,572.606595 490.364502,578.368914 C480.418353,584.131234 470.438172,596.496298 462.738203,596.379803 C462.738203,596.379803 481.481885,575.77691 451.018084,562.350914 C452.894154,563.249586 466.813656,570.48889 462.002239,586.290543 C456.846238,603.223858 426.27183,608.628373 426.27183,608.628373 C426.27183,608.628373 450.579909,617.635898 471.212423,603.943628 C491.836429,590.255519 498.834468,576.205444 509.886689,578.368914" id="Fill-60"></path>
                        <path d="M454.159908,647.23255 C463.433989,648.688113 465.288806,645.410993 465.288806,645.410993 C465.288806,645.410993 446.744926,636.6692 453.791514,637.396982 C460.838103,638.12897 473.817534,631.570523 473.817534,631.570523 C454.159908,632.298304 444.517433,621.373167 444.517433,621.373167 L448.599742,630.476747 L442.6669,634.490063 C442.6669,634.490063 444.89011,645.776987 454.159908,647.23255" id="Fill-61"></path>
                        <path d="M462.438423,681.923208 C467.212603,700.916037 505.062295,699.456673 506.530621,677.540896 C507.998946,655.629338 488.159579,653.803023 474.562717,655.629338 C460.965854,657.45987 447.585421,650.884294 447.585421,650.884294 C459.926144,670.973755 489.992864,662.934597 489.627904,677.178164 C489.258701,691.421731 462.438423,681.923208 462.438423,681.923208" id="Fill-62"></path>
                        <path d="M359.052041,701.709012 C359.052041,701.709012 366.153179,765.199793 420.728931,835.260475 C475.300461,905.316943 511.861613,991.800271 465.611333,1060.76105 C465.611333,1060.76105 520.263078,1023.54566 495.037572,929.400961 C469.82051,835.260475 383.179868,792.566655 359.052041,701.709012" id="Fill-63"></path>
                        <path d="M340.299376,834.316799 C374.148023,902.985853 413.155773,980.425208 413.155773,980.425208 C408.005169,930.018124 391.078721,916.134977 353.545607,824.08689 C316.012493,732.043022 353.545607,624.652181 353.545607,624.652181 C316.751937,705.01497 306.446479,765.643527 340.299376,834.316799" id="Fill-65"></path>
                        <path d="M300.831132,1008.4708 C373.474449,985.453967 333.851977,873.656705 292.030376,794.741238 C250.204537,715.825771 342.656971,616.454646 342.656971,616.454646 C232.221672,695.492475 256.284982,824.504896 265.954374,861.340272 C261.471369,837.572383 268.916208,804.606199 268.916208,804.606199 C268.916208,804.606199 266.712841,826.52599 299.729448,870.369791 C332.750294,914.209373 331.64861,966.82109 299.729448,982.162834 C267.814524,997.508797 276.687314,951.475127 276.687314,951.475127 L260.111214,970.108004 C240.297859,944.89708 276.687314,908.72837 276.687314,908.72837 C200.213528,919.382359 228.187815,1031.48342 300.831132,1008.4708" id="Fill-68"></path>
                        <path d="M216.293657,745.975702 C229.831153,650.632062 334.459436,608.257111 334.459436,608.257111 C222.365249,617.391098 180.345774,710.907941 180.345774,710.907941 C200.736522,673.646335 232.716955,668.165943 232.716955,668.165943 C215.486647,693.37406 216.293657,745.975702 216.293657,745.975702" id="Fill-69"></path>
                    </g>
                </g>
            </g>
        </g>
    </g>
</svg>