<?xml version="1.0" encoding="UTF-8"?>
<svg width="153px" height="42px" viewBox="0 0 153 42" version="1.1" xmlns="http://www.w3.org/2000/svg" xmlns:xlink="http://www.w3.org/1999/xlink">
    <!-- Generator: Sketch 47.1 (45422) - http://www.bohemiancoding.com/sketch -->
    <title>Group 23</title>
    <desc>Created with Sketch.</desc>
    <defs></defs>
    <g id="CLIENT" stroke="none" stroke-width="1" fill="none" fill-rule="evenodd">
        <g id="Group-23">
            <path d="M55.016,30.296 L55.016,17.048 C55.016,16.016 55.832,15.2 56.864,15.2 L61.88,15.2 C65.888,15.2 68.312,17.576 68.312,21.008 L68.312,21.056 C68.312,24.944 65.288,26.96 61.52,26.96 L58.712,26.96 L58.712,30.296 C58.712,31.328 57.896,32.144 56.864,32.144 C55.832,32.144 55.016,31.328 55.016,30.296 Z M58.712,23.672 L61.64,23.672 C63.488,23.672 64.568,22.568 64.568,21.128 L64.568,21.08 C64.568,19.424 63.416,18.536 61.568,18.536 L58.712,18.536 L58.712,23.672 Z M79.208,32.288 C74.024,32.288 70.304,28.424 70.304,23.648 L70.304,23.6 C70.304,18.824 74.072,14.912 79.256,14.912 C84.44,14.912 88.16,18.776 88.16,23.552 L88.16,23.6 C88.16,28.376 84.392,32.288 79.208,32.288 Z M79.256,28.88 C82.232,28.88 84.296,26.528 84.296,23.648 L84.296,23.6 C84.296,20.72 82.184,18.32 79.208,18.32 C76.232,18.32 74.168,20.672 74.168,23.552 L74.168,23.6 C74.168,26.48 76.28,28.88 79.256,28.88 Z M91.448,30.296 L91.448,17.048 C91.448,16.016 92.264,15.2 93.296,15.2 L98.312,15.2 C102.32,15.2 104.744,17.576 104.744,21.008 L104.744,21.056 C104.744,24.944 101.72,26.96 97.952,26.96 L95.144,26.96 L95.144,30.296 C95.144,31.328 94.328,32.144 93.296,32.144 C92.264,32.144 91.448,31.328 91.448,30.296 Z M95.144,23.672 L98.072,23.672 C99.92,23.672 101,22.568 101,21.128 L101,21.08 C101,19.424 99.848,18.536 98,18.536 L95.144,18.536 L95.144,23.672 Z M109.328,32 L118.76,32 C119.672,32 120.416,31.28 120.416,30.368 C120.416,29.456 119.672,28.712 118.76,28.712 L111.152,28.712 L111.152,25.184 L117.56,25.184 C118.472,25.184 119.216,24.464 119.216,23.552 C119.216,22.64 118.472,21.896 117.56,21.896 L111.152,21.896 L111.152,18.488 L118.64,18.488 C119.552,18.488 120.296,17.768 120.296,16.856 C120.296,15.944 119.552,15.2 118.64,15.2 L109.328,15.2 C108.296,15.2 107.48,16.016 107.48,17.048 L107.48,30.152 C107.48,31.184 108.296,32 109.328,32 Z M127.952,30.296 C127.952,31.328 128.768,32.144 129.8,32.144 C130.832,32.144 131.648,31.328 131.648,30.296 L131.648,25.448 L137.072,18.128 C137.312,17.792 137.552,17.336 137.552,16.832 C137.552,15.824 136.88,15.032 135.752,15.032 C134.984,15.032 134.432,15.464 133.976,16.136 L129.824,22.064 L125.744,16.184 C125.288,15.512 124.76,15.056 123.92,15.056 C122.888,15.056 122.072,15.848 122.072,16.832 C122.072,17.36 122.264,17.792 122.528,18.152 L127.952,25.52 L127.952,30.296 Z M141.92,32 L151.352,32 C152.264,32 153.008,31.28 153.008,30.368 C153.008,29.456 152.264,28.712 151.352,28.712 L143.744,28.712 L143.744,25.184 L150.152,25.184 C151.064,25.184 151.808,24.464 151.808,23.552 C151.808,22.64 151.064,21.896 150.152,21.896 L143.744,21.896 L143.744,18.488 L151.232,18.488 C152.144,18.488 152.888,17.768 152.888,16.856 C152.888,15.944 152.144,15.2 151.232,15.2 L141.92,15.2 C140.888,15.2 140.072,16.016 140.072,17.048 L140.072,30.152 C140.072,31.184 140.888,32 141.92,32 Z" id="POPEYE" fill="#FFFFFF"></path>
            <g id="Group-5">
                <g id="Group-4" fill="#FFFFFF">
                    <path d="M4.8,11.0943396 C4.65359188,11.3055469 2.89322504,15.8490011 3.33314328,18.2264151 C3.33314328,18.2264151 0.912436503,13.8415329 1.79273557,11.0943396 L4.8,11.0943396" id="Fill-26"></path>
                    <path d="M26.4,8.20884299 C26.8281593,8.26109786 31.6227627,14.2546319 31.5454697,17.4339623 C31.5454697,17.4339623 33.0847461,10.2993661 30.4979913,6.80453467 C27.9109925,3.30986756 26.4,8.20884299 26.4,8.20884299" id="Fill-27"></path>
                    <path d="M23.8172895,10.3710609 C14.4899159,10.7555792 10.6223983,11.2941959 5.73133705,12.2173309 C0.839797615,13.1404659 -0.104829912,12.7559476 0.00873777159,10.3710609 C0.00873777159,10.3710609 0.383614163,11.0923965 4.93468964,10.2942542 C2.88760226,9.78102415 1.90183477,8.78108249 1.90183477,8.78108249 C1.90183477,8.78108249 4.82112196,9.06324585 7.55128906,7.67846248 L4.5937475,7.29394416 C4.5937475,7.29394416 9.25695612,5.98612913 11.0773863,4.52453912 L6.52750629,4.52453912 C6.52750629,4.52453912 25.864855,-6.24569277 30.9832908,5.44767413 C30.9832908,5.44767413 33.144424,9.98638086 23.8172895,10.3710609 Z" id="Fill-28"></path>
                    <path d="M17.587209,26.5611278 C21.7465656,26.5611278 19.461531,28.9666397 23.6569733,29.2634361 C23.6569733,29.2634361 23.6405923,32.9758795 21.3491477,33.5012526 C19.813367,33.853588 18.3203194,33.6242088 17.587209,32.3649508 C16.8514872,33.8227687 15.419453,33.9133004 13.82622,33.5017341 C12.2325122,33.0904889 11.5176822,29.2634361 11.5176822,29.2634361 C15.7342537,29.0048428 13.4285646,26.5611278 17.587209,26.5611278 M17.587209,42 C25.2031999,39.658053 31.3553441,31.7922252 31.3553441,31.7922252 C32.3996267,30.9413403 31.8612568,23.7735849 31.8612568,23.7735849 C31.8612568,23.7735849 31.6364331,26.7519829 29.83452,26.9428379 C28.0335566,27.1338535 27.5262196,26.0264448 27.5262196,26.0264448 C27.5262196,26.0264448 26.9633295,27.3629116 24.0356362,27.3629116 C21.107943,27.3629116 22.234198,26.4083154 20.5450529,25.5301254 C19.6046869,25.0410293 15.570206,25.0410293 14.62984,25.5301254 C12.9406949,26.4083154 14.0664751,27.3629116 11.1387819,27.3629116 C8.21108861,27.3629116 7.64819851,26.0264448 7.64819851,26.0264448 C7.64819851,26.0264448 7.14133628,27.1338535 5.33942323,26.9428379 C3.53774758,26.7519829 3.31268651,23.7735849 3.31268651,23.7735849 C3.31268651,23.7735849 2.84360549,30.7409463 3.81954874,31.7922252 C3.81954874,31.7922252 9.97121817,39.658053 17.587209,42 Z" id="Fill-29"></path>
                </g>
                <g id="Group" transform="translate(7.000000, 15.000000)">
                    <path d="M12.6406339,3.81254943 L11.8519421,3.77161811 L11.8519421,2.92174642 C10.0619256,2.34308377 9.151616,2.85081962 8.94421573,2.99314189 L8.94421573,3.7366234 L8.2256087,3.77833585 L8.20911815,3.50603321 L8.66736492,3.47947472 L8.66736492,2.86488 L8.71366528,2.82410491 C8.75568445,2.78723547 9.76937703,1.92720906 12.0353994,2.69459321 L12.1287929,2.72630717 L12.1287929,3.51275094 L12.6552217,3.53993434 L12.6406339,3.81254943" id="Fill-60" stroke="#FFFFFF" stroke-width="2.73600006" fill="#FFFFFF"></path>
                    <path d="M4.30593395,7.70055623 C2.39414114,7.70055623 0.844505974,6.17375547 0.844505974,4.29013358 C0.844505974,2.40666792 2.39414114,0.879710943 4.30593395,0.879710943 C6.21772677,0.879710943 7.76736193,2.40666792 7.76736193,4.29013358 C7.76736193,6.17375547 6.21772677,7.70055623 4.30593395,7.70055623 M4.30593395,0.129355472 C1.97743785,0.129355472 0.0829283936,1.99594868 0.0829283936,4.29013358 C0.0829283936,6.58447472 1.97743785,8.4509117 4.30593395,8.4509117 C6.63443005,8.4509117 8.52893951,6.58447472 8.52893951,4.29013358 C8.52893951,1.99594868 6.63443005,0.129355472 4.30593395,0.129355472" id="Fill-61" stroke="#FFFFFF" stroke-width="2.73600006" fill="#FFFFFF"></path>
                    <path d="M4.30593395,7.62244302 C3.37168138,7.62244302 2.52669972,7.24968679 1.91432982,6.6464966 C1.30211849,6.04315019 0.923787421,5.21061962 0.923787421,4.29013358 C0.923787421,3.36964755 1.30211849,2.53711698 1.91432982,1.93377057 C2.52669972,1.3307366 3.37168138,0.957824151 4.30593395,0.957824151 C5.24018653,0.957824151 6.08516819,1.3307366 6.69753808,1.93377057 C7.30959086,2.53711698 7.68808048,3.36964755 7.68808048,4.29013358 C7.68808048,5.21061962 7.30959086,6.04315019 6.69753808,6.6464966 C6.08516819,7.24968679 5.24018653,7.62244302 4.30593395,7.62244302 M4.49620943,3.64226264 C3.1818816,3.64226264 1.97632791,4.10063094 1.03478145,4.86379698 C1.31020519,6.39825283 2.66940632,7.56417057 4.30593395,7.56417057 C6.03252531,7.56417057 7.45102896,6.26671019 7.61308024,4.60758566 C6.72956779,3.99986491 5.65562131,3.64226264 4.49620943,3.64226264" id="Fill-62" fill="#000000"></path>
                    <path d="M4.30593395,7.77866943 C2.35037778,7.77866943 0.765224527,6.21687396 0.765224527,4.29013358 C0.765224527,2.36339321 2.35037778,0.801597736 4.30593395,0.801597736 C6.26149013,0.801597736 7.84664338,2.36339321 7.84664338,4.29013358 C7.84664338,6.21687396 6.26149013,7.77866943 4.30593395,7.77866943 M4.30593395,0.879710943 C2.39414114,0.879710943 0.844505974,2.40666792 0.844505974,4.29013358 C0.844505974,6.17375547 2.39414114,7.70055623 4.30593395,7.70055623 C6.21772677,7.70055623 7.76736193,6.17375547 7.76736193,4.29013358 C7.76736193,2.40666792 6.21772677,0.879710943 4.30593395,0.879710943" id="Fill-63" fill="#000408"></path>
                    <path d="M4.30593395,7.70055623 C2.39414114,7.70055623 0.844505974,6.17375547 0.844505974,4.29013358 C0.844505974,2.40666792 2.39414114,0.879710943 4.30593395,0.879710943 C6.21772677,0.879710943 7.76736193,2.40666792 7.76736193,4.29013358 C7.76736193,6.17375547 6.21772677,7.70055623 4.30593395,7.70055623 M4.30593395,0.957824151 C3.37168138,0.957824151 2.52669972,1.3307366 1.91432982,1.93377057 C1.30211849,2.53711698 0.923787421,3.36964755 0.923787421,4.29013358 C0.923787421,5.21061962 1.30211849,6.04315019 1.91432982,6.6464966 C2.52669972,7.24968679 3.37168138,7.62244302 4.30593395,7.62244302 C5.24018653,7.62244302 6.08516819,7.24968679 6.69753808,6.6464966 C7.30959086,6.04315019 7.68808048,5.21061962 7.68808048,4.29013358 C7.68808048,3.36964755 7.30959086,2.53711698 6.69753808,1.93377057 C6.08516819,1.3307366 5.24018653,0.957824151 4.30593395,0.957824151" id="Fill-64" fill="#657F83"></path>
                    <path d="M4.30593395,7.56417057 C2.66940632,7.56417057 1.31020519,6.39825283 1.03478145,4.86379698 C1.97632791,4.10063094 3.1818816,3.64226264 4.49620943,3.64226264 C5.65562131,3.64226264 6.72956779,3.99986491 7.61308024,4.60758566 C7.45102896,6.26671019 6.03252531,7.56417057 4.30593395,7.56417057" id="Fill-65" fill="#000000"></path>
                    <path d="M16.4902239,7.70055623 C14.5785896,7.70055623 13.0287959,6.17375547 13.0287959,4.29013358 C13.0287959,2.40666792 14.5785896,0.879710943 16.4902239,0.879710943 C18.4018581,0.879710943 19.9518104,2.40666792 19.9518104,4.29013358 C19.9518104,6.17375547 18.4018581,7.70055623 16.4902239,7.70055623 M16.4902239,0.129355472 C14.1615692,0.129355472 12.2672183,1.99594868 12.2672183,4.29013358 C12.2672183,6.58447472 14.1615692,8.4509117 16.4902239,8.4509117 C18.81872,8.4509117 20.713388,6.58447472 20.713388,4.29013358 C20.713388,1.99594868 18.81872,0.129355472 16.4902239,0.129355472" id="Fill-66" stroke="#FFFFFF" stroke-width="2.73600006" fill="#FFFFFF"></path>
                    <path d="M16.4902239,7.62244302 C15.5559713,7.62244302 14.7109896,7.24968679 14.0986197,6.6464966 C13.4864084,6.04315019 13.1080773,5.21061962 13.1080773,4.29013358 C13.1080773,3.36964755 13.4864084,2.53711698 14.0986197,1.93377057 C14.7109896,1.3307366 15.5559713,0.957824151 16.4902239,0.957824151 C17.4244764,0.957824151 18.2694581,1.3307366 18.881828,1.93377057 C19.4940393,2.53711698 19.872529,3.36964755 19.872529,4.29013358 C19.872529,5.21061962 19.4940393,6.04315019 18.881828,6.6464966 C18.2694581,7.24968679 17.4244764,7.62244302 16.4902239,7.62244302 M16.6806579,3.64226264 C15.3663301,3.64226264 14.1606178,4.10063094 13.2192299,4.86379698 C13.4944951,6.39825283 14.8536962,7.56417057 16.4902239,7.56417057 C18.2166567,7.56417057 19.6354774,6.26671019 19.7973701,4.60758566 C18.9140163,3.99986491 17.8399112,3.64226264 16.6806579,3.64226264" id="Fill-67" fill="#000000"></path>
                    <path d="M16.4902239,7.77866943 C14.5348263,7.77866943 12.9495144,6.21687396 12.9495144,4.29013358 C12.9495144,2.36339321 14.5348263,0.801597736 16.4902239,0.801597736 C18.44578,0.801597736 20.0309333,2.36339321 20.0310919,4.29013358 C20.0309333,6.21687396 18.44578,7.77866943 16.4902239,7.77866943 M16.4902239,0.879710943 C14.5785896,0.879710943 13.0287959,2.40666792 13.0287959,4.29013358 C13.0287959,6.17375547 14.5785896,7.70055623 16.4902239,7.70055623 C18.4018581,7.70055623 19.9518104,6.17375547 19.9518104,4.29013358 C19.9518104,2.40666792 18.4018581,0.879710943 16.4902239,0.879710943" id="Fill-68" fill="#000408"></path>
                    <path d="M16.4902239,7.70055623 C14.5785896,7.70055623 13.0287959,6.17375547 13.0287959,4.29013358 C13.0287959,2.40666792 14.5785896,0.879710943 16.4902239,0.879710943 C18.4018581,0.879710943 19.9518104,2.40666792 19.9518104,4.29013358 C19.9518104,6.17375547 18.4018581,7.70055623 16.4902239,7.70055623 M16.4902239,0.957824151 C15.5559713,0.957824151 14.7109896,1.3307366 14.0986197,1.93377057 C13.4864084,2.53711698 13.1080773,3.36964755 13.1080773,4.29013358 C13.1080773,5.21061962 13.4864084,6.04315019 14.0986197,6.6464966 C14.7109896,7.24968679 15.5559713,7.62244302 16.4902239,7.62244302 C17.4244764,7.62244302 18.2694581,7.24968679 18.881828,6.6464966 C19.4940393,6.04315019 19.872529,5.21061962 19.872529,4.29013358 C19.872529,3.36964755 19.4940393,2.53711698 18.881828,1.93377057 C18.2694581,1.3307366 17.4244764,0.957824151 16.4902239,0.957824151" id="Fill-69" fill="#657F83"></path>
                    <path d="M16.4902239,7.56417057 C14.8536962,7.56417057 13.4944951,6.39825283 13.2192299,4.86379698 C14.1606178,4.10063094 15.3663301,3.64226264 16.6806579,3.64226264 C17.8399112,3.64226264 18.9140163,3.99986491 19.7973701,4.60758566 C19.6354774,6.26671019 18.2166567,7.56417057 16.4902239,7.56417057" id="Fill-70" fill="#000000"></path>
                </g>
            </g>
        </g>
    </g>
</svg>